Coordinates
version=1
nRows=16
nColumns=36
inDegrees=yes

Units are S.I. units (second, meters, Newtons, ...)
If the header above contains a line with 'inDegrees', this indicates whether rotational values are in degrees (yes) or radians (no).

endheader
time	pelvis_tilt	pelvis_list	pelvis_rotation	pelvis_tx	pelvis_ty	pelvis_tz	hip_flexion_r	hip_adduction_r	hip_rotation_r	knee_angle_r	knee_angle_r_beta	ankle_angle_r	subtalar_angle_r	mtp_angle_r	hip_flexion_l	hip_adduction_l	hip_rotation_l	knee_angle_l	knee_angle_l_beta	ankle_angle_l	subtalar_angle_l	mtp_angle_l	lumbar_extension	lumbar_bending	lumbar_rotation	arm_flex_r	arm_add_r	arm_rot_r	elbow_flex_r	pro_sup_r	arm_flex_l	arm_add_l	arm_rot_l	elbow_flex_l	pro_sup_l
     15.10000000	     -6.24609856	     -7.05280289	     -3.04466682	      0.61988597	      0.91321087	      0.74354779	     31.18714234	      7.63693780	     -7.72545256	     17.36845898	      0.30313680	      4.07365790	     -7.48317871	     -7.49999987	     -0.83049189	    -10.34953602	    -12.23336579	     29.06290898	      0.50724345	     19.04083991	     -2.53794749	     -7.49999987	      4.02235047	      8.71313683	     -1.18443707	     -1.77313632	     -8.82427961	     -1.30109376	     15.44297563	     68.63102594	      8.32736268	     -9.53743358	     11.76468419	     26.91458898	     68.28538172
     15.11666670	     -5.99128748	     -7.45557463	     -2.95098548	      0.62277071	      0.91358095	      0.74451865	     29.52192814	      8.42500729	     -7.97224424	     16.68393754	      0.29118964	      3.52676051	     -7.91775147	     -7.49999987	     -1.02691084	    -11.35291799	    -12.70899234	     31.52436626	      0.55020399	     14.66072643	     -5.05002728	     -7.49999987	      4.39493361	      9.28418639	     -0.92837827	     -1.85316348	     -9.06301386	     -1.38907378	     15.12803676	     68.89542243	      8.22700953	     -8.78060149	     12.01293972	     25.65224258	     68.29328501
     15.13333330	     -5.69633758	     -7.71948963	     -2.94086102	      0.62528193	      0.91282141	      0.74598286	     27.92082041	      9.04709280	     -8.20315871	     16.19127383	      0.28259104	      3.59440886	     -8.26705478	     -7.49999987	     -0.69671491	    -12.24719403	    -12.86758280	     34.93922581	      0.60980453	      9.55061109	     -8.26830594	     -7.49999987	      4.69148476	      9.70823579	     -0.58997969	     -1.99240560	     -9.26793097	     -1.50792476	     14.89343686	     69.18325208	      8.04656951	     -8.07784041	     12.18223692	     24.28778537	     68.28873220
     15.15000000	     -5.33298331	     -7.76557068	     -3.03470065	      0.62558440	      0.91414960	      0.74819108	     26.36463953	      9.45035822	     -8.32175844	     15.86723803	      0.27693555	      4.22774147	     -8.33644386	     -7.49999987	      0.34596449	    -12.94476012	    -12.52299463	     39.40457858	      0.68773964	      3.74890413	    -12.06462735	     -7.49999987	      4.75330388	      9.90691030	     -0.06333573	     -2.10952065	     -9.44492667	     -1.64572239	     14.90893041	     69.52593693	      7.92995586	     -7.49924179	     12.31685236	     22.96916584	     68.30093720
     15.16666670	     -4.88573500	     -7.75425238	     -3.23164660	      0.62442998	      0.91731337	      0.75074319	     24.77034539	      9.79868630	     -8.32980467	     15.52097010	      0.27089203	      4.95218101	     -8.21875477	     -7.49999987	      1.94230183	    -13.57772757	    -11.77391628	     44.56347561	      0.77777938	     -1.50914592	    -15.36650381	     -7.49999987	      4.39005059	     10.07828491	      0.71242849	     -2.11122161	     -9.70406896	     -1.69494845	     15.08423416	     69.75498074	      7.76576367	     -7.04470426	     12.40194983	     22.24231948	     68.32843297
     15.18333330	     -4.53077129	     -7.35415333	     -3.50870633	      0.62454613	      0.92109050	      0.75319271	     23.36103785	      9.72286125	     -8.21609599	     15.31563611	      0.26730828	      5.87038918	     -7.53783831	     -7.49999987	      3.79168998	    -13.52296432	    -10.70674918	     49.24079766	      0.85941405	     -6.76481196	    -18.98362255	     -7.49999987	      3.97994380	      9.81495734	      1.92091363	     -2.24349195	    -10.01176156	     -1.89692204	     16.06858660	     70.35295651	      8.10364680	     -6.58587620	     12.81839206	     20.84871724	     68.57020283
     15.20000000	     -4.17205276	     -7.05358393	     -3.77869445	      0.62717430	      0.92448043	      0.75531251	     21.78734183	      9.76030558	     -7.97915098	     14.92220456	      0.26044160	      6.47075944	     -7.09285727	     -7.49999987	      5.51425656	    -13.42124469	     -9.81121552	     53.35536781	      0.93122684	     -9.98331783	    -21.11786811	     -7.49999987	      3.37790830	      9.70569362	      2.90629952	     -1.93548237	    -10.44604907	     -1.95927424	     16.73248648	     70.59464522	      8.03429716	     -6.28540510	     13.01899773	     20.38648500	     68.69867040
     15.21666670	     -3.89240912	     -6.56031378	     -4.24790773	      0.63016600	      0.92703183	      0.75712678	     20.21052997	      9.66671412	     -7.19713119	     14.53493121	      0.25368241	      7.07826658	     -6.77573985	     -7.49999987	      7.04001541	    -12.96795324	     -9.47149666	     56.67528091	      0.98917026	    -10.77303356	    -21.52982003	     -7.49999987	      2.87919734	      9.36329202	      3.70860301	     -1.24109360	    -10.79061576	     -1.96772704	     17.11972985	     70.63666533	      7.64940204	     -6.19765607	     13.05593002	     20.19016484	     68.71510210
     15.23333330	     -3.77887509	     -6.22265221	     -4.46760150	      0.63123240	      0.92824407	      0.75717057	     18.86317501	      9.48003682	     -7.03766849	     14.26125381	      0.24890583	      7.98729093	     -5.91559491	     -7.49999987	      8.90545677	    -12.35118675	     -8.93063643	     59.74418870	      1.04273280	    -11.29455767	    -23.51912447	     -7.49999987	      2.54169091	      9.28454915	      4.82534040	     -1.26923565	    -11.50708260	     -1.78060859	     18.30273560	     71.00645808	      7.70285198	     -5.67178053	     13.24615890	     19.18826050	     68.96859947
     15.25000000	     -3.82062120	     -5.68838672	     -4.87572710	      0.63033307	      0.92873379	      0.75753463	     17.81437763	      9.13877959	     -6.36302764	     14.07350660	      0.24562903	      8.75592134	     -5.45931146	     -7.49999987	     10.96752663	    -11.55164308	     -8.98760115	     62.69534809	      1.09424025	     -9.25812552	    -23.83228130	     -7.49999987	      2.25010067	      8.97010511	      5.78459623	     -1.11033043	    -12.05866648	     -1.72964852	     19.42537800	     71.33399995	      7.39607973	     -5.40000732	     13.55548173	     18.52052633	     69.36748215
     15.26666670	     -3.93650856	     -5.07898915	     -5.27272453	      0.62914350	      0.92989224	      0.75933354	     16.98566397	      8.68388738	     -5.69708199	     13.95127018	      0.24349560	      9.50591841	     -5.13093523	     -7.49999987	     13.18068622	    -10.63811747	     -9.27420084	     65.46397632	      1.14256193	     -6.26034064	    -24.15636745	     -7.49999987	      1.91951485	      8.57775466	      6.35510028	     -0.57706591	    -12.55076864	     -1.79432629	     20.31521416	     71.45620155	      6.79236984	     -5.34829616	     13.74837055	     18.18045259	     69.60050657
     15.28333330	     -4.08809342	     -4.43435382	     -5.67266646	      0.62902858	      0.93188518	      0.76258732	     16.28391824	      8.19767711	     -4.98134730	     13.91488514	      0.24286056	     10.31634050	     -4.70364193	     -7.49999987	     15.42956593	     -9.71144290	     -9.67566442	     67.73172435	      1.18214160	     -2.43093632	    -23.77394771	     -7.49999987	      1.59884592	      8.10182947	      6.76036740	      0.05764766	    -12.98005229	     -1.88576086	     21.32882201	     71.55440342	      6.09143808	     -5.39311204	     13.98462947	     17.78575836	     69.85719705
     15.30000000	     -4.19852936	     -3.83134878	     -6.11837312	      0.63014955	      0.93405405	      0.76555173	     15.50399292	      7.75659181	     -4.27668595	     13.84513204	      0.24164314	     11.17412376	     -4.06016034	     -7.49999987	     17.71059138	     -8.89640248	     -9.94527512	     69.48293251	      1.21270595	      1.39824005	    -22.45856106	     -7.49999987	      1.36106688	      7.57711227	      7.35732836	      0.61070519	    -13.38321553	     -2.17944172	     22.41117022	     71.05951582	      5.51698054	     -5.42328801	     14.40711267	     17.11929826	     69.90972460
     15.31666670	     -4.11819962	     -3.22457038	     -6.66286862	      0.63203907	      0.93583677	      0.76783512	     14.43107061	      7.29584884	     -3.35330983	     13.75355284	      0.24004478	     12.30898590	     -3.25042778	     -7.49999987	     19.89820671	     -8.16102296	    -10.05882350	     70.26940589	      1.22643250	      4.40248472	    -20.50518900	     -7.49999987	      1.02906828	      6.93353027	      7.89327560	      1.33020943	    -13.70052739	     -2.51436238	     23.51282482	     71.20803936	      4.90381083	     -5.58732391	     14.97647217	     16.43216409	     70.62633668
     15.33333330	     -3.90922277	     -2.65630669	     -7.29508698	      0.63330634	      0.93644869	      0.77014626	     13.03634289	      6.83172069	     -2.45731008	     13.49409247	      0.23551634	     13.55816170	     -2.09643320	     -7.49999987	     21.94168556	     -7.60572558	    -10.10791537	     69.69557924	      1.21641733	      6.31075158	    -18.16783316	     -7.49999987	      0.69194283	      6.28195197	      8.55290034	      1.91280592	    -13.91955830	     -3.02039532	     24.64963058	     70.75226041	      4.23871041	     -5.74262769	     15.38176834	     15.81658261	     70.53820549
     15.35000000	     -3.71143869	     -2.13232635	     -7.83742809	      0.63138331	      0.93593705	      0.77236796	     11.48607063	      6.38184606	     -1.57832092	     12.94806795	      0.22598642	     14.58945298	     -0.94862332	     -7.49999987	     23.84069521	     -7.17687331	    -10.11166486	     67.72548697	      1.18203274	      7.08217632	    -15.97582750	     -7.49999987	      0.40315692	      5.56458200	      9.14656622	      2.44262578	    -13.98710586	     -3.45213890	     25.74068818	     70.23285216	      3.56991993	     -5.91342338	     15.39164790	     15.35869151	     70.15212319
